<mxfile host="app.diagrams.net" modified="2021-03-13T02:35:58.290Z" agent="5.0 (Macintosh; Intel Mac OS X 10_15_7) AppleWebKit/537.36 (KHTML, like Gecko) Chrome/89.0.4389.72 Safari/537.36" etag="_QYve-cZWhS6v3W574nj" version="14.2.7" type="github">
  <diagram id="mE0AKhrAAFQqlHh5RbEj" name="Page-1">
    <mxGraphModel dx="1042" dy="618" grid="1" gridSize="10" guides="1" tooltips="1" connect="1" arrows="1" fold="1" page="1" pageScale="1" pageWidth="827" pageHeight="1169" math="0" shadow="0">
      <root>
        <mxCell id="0" />
        <mxCell id="1" parent="0" />
        <mxCell id="BXkf_VijAVCZ9pnHOweu-1" value="测试" style="rounded=0;whiteSpace=wrap;html=1;" vertex="1" parent="1">
          <mxGeometry x="380" y="170" width="120" height="60" as="geometry" />
        </mxCell>
      </root>
    </mxGraphModel>
  </diagram>
</mxfile>
